<svg xmlns="http://www.w3.org/2000/svg" xmlns:xlink="http://www.w3.org/1999/xlink" width="500" zoomAndPan="magnify" viewBox="0 0 375 374.999991" height="500" preserveAspectRatio="xMidYMid meet" version="1.0"><path fill="#5a6781" d="M 132.441406 299.695312 C 131.609375 299.683594 130.773438 299.710938 129.941406 299.78125 C 129.109375 299.851562 128.285156 299.960938 127.460938 300.113281 C 126.640625 300.265625 125.828125 300.453125 125.027344 300.6875 C 124.226562 300.917969 123.4375 301.1875 122.660156 301.496094 C 121.882812 301.804688 121.125 302.152344 120.382812 302.535156 C 119.644531 302.917969 118.921875 303.339844 118.222656 303.792969 C 117.519531 304.25 116.84375 304.738281 116.191406 305.257812 C 115.539062 305.78125 114.917969 306.332031 114.320312 306.914062 C 113.722656 307.496094 113.152344 308.109375 112.617188 308.746094 C 112.078125 309.386719 111.574219 310.050781 111.101562 310.738281 C 110.628906 311.425781 110.191406 312.136719 109.789062 312.871094 C 109.390625 313.601562 109.023438 314.351562 108.695312 315.117188 C 108.367188 315.886719 108.078125 316.667969 107.828125 317.464844 C 107.578125 318.261719 107.367188 319.066406 107.195312 319.882812 C 107.023438 320.699219 106.890625 321.523438 106.800781 322.355469 C 106.710938 323.183594 106.660156 324.015625 106.652344 324.851562 C 106.644531 325.683594 106.679688 326.519531 106.753906 327.351562 C 106.824219 328.179688 106.941406 329.007812 107.097656 329.828125 C 107.25 330.648438 107.445312 331.457031 107.683594 332.257812 C 107.917969 333.058594 108.191406 333.847656 108.503906 334.621094 C 108.816406 335.394531 109.167969 336.152344 109.554688 336.890625 C 109.941406 337.628906 110.363281 338.347656 110.824219 339.046875 C 111.28125 339.746094 111.773438 340.417969 112.296875 341.066406 C 112.824219 341.71875 113.378906 342.339844 113.964844 342.933594 C 114.550781 343.527344 115.164062 344.09375 115.804688 344.625 C 116.449219 345.160156 117.113281 345.664062 117.804688 346.128906 C 118.496094 346.597656 119.207031 347.03125 119.941406 347.429688 C 120.675781 347.828125 121.429688 348.191406 122.199219 348.515625 C 122.96875 348.839844 123.75 349.125 124.546875 349.371094 C 125.347656 349.617188 126.152344 349.824219 126.972656 349.992188 C 127.789062 350.160156 128.613281 350.285156 129.445312 350.375 C 130.277344 350.460938 131.109375 350.503906 131.941406 350.507812 C 132.777344 350.511719 133.613281 350.476562 134.441406 350.398438 C 135.273438 350.320312 136.101562 350.203125 136.917969 350.042969 C 137.738281 349.882812 138.550781 349.683594 139.347656 349.445312 C 140.148438 349.207031 140.933594 348.929688 141.707031 348.609375 C 142.480469 348.292969 143.234375 347.941406 143.972656 347.550781 C 144.710938 347.160156 145.429688 346.734375 146.125 346.269531 C 146.820312 345.808594 147.492188 345.316406 148.136719 344.789062 C 148.785156 344.257812 149.40625 343.703125 149.996094 343.113281 C 150.589844 342.523438 151.148438 341.90625 151.679688 341.261719 C 152.210938 340.617188 152.710938 339.949219 153.175781 339.257812 C 153.640625 338.5625 154.070312 337.851562 154.464844 337.113281 C 154.859375 336.378906 155.21875 335.625 155.539062 334.855469 C 155.859375 334.085938 156.140625 333.300781 156.382812 332.5 C 156.628906 331.703125 156.832031 330.894531 156.996094 330.074219 C 157.160156 329.257812 157.28125 328.433594 157.363281 327.601562 C 157.445312 326.769531 157.488281 325.9375 157.488281 325.101562 C 157.492188 324.277344 157.457031 323.453125 157.382812 322.628906 C 157.308594 321.808594 157.191406 320.992188 157.035156 320.179688 C 156.882812 319.367188 156.6875 318.566406 156.453125 317.773438 C 156.21875 316.980469 155.945312 316.203125 155.636719 315.4375 C 155.324219 314.671875 154.976562 313.925781 154.59375 313.191406 C 154.210938 312.460938 153.789062 311.75 153.335938 311.0625 C 152.882812 310.371094 152.394531 309.703125 151.875 309.0625 C 151.355469 308.417969 150.804688 307.804688 150.226562 307.214844 C 149.648438 306.628906 149.039062 306.070312 148.40625 305.539062 C 147.769531 305.011719 147.109375 304.515625 146.425781 304.050781 C 145.742188 303.585938 145.039062 303.15625 144.3125 302.761719 C 143.585938 302.367188 142.84375 302.007812 142.082031 301.6875 C 141.320312 301.367188 140.546875 301.082031 139.757812 300.835938 C 138.96875 300.589844 138.171875 300.382812 137.359375 300.214844 C 136.550781 300.050781 135.738281 299.921875 134.914062 299.835938 C 134.09375 299.746094 133.269531 299.699219 132.441406 299.695312 Z M 132.441406 299.695312 " fill-opacity="1" fill-rule="nonzero"/><path fill="#5a6781" d="M 270.175781 299.695312 C 269.339844 299.683594 268.507812 299.714844 267.675781 299.785156 C 266.84375 299.855469 266.019531 299.964844 265.199219 300.117188 C 264.375 300.269531 263.566406 300.464844 262.761719 300.695312 C 261.960938 300.925781 261.171875 301.199219 260.398438 301.507812 C 259.621094 301.816406 258.863281 302.164062 258.125 302.550781 C 257.382812 302.933594 256.664062 303.355469 255.964844 303.808594 C 255.265625 304.265625 254.589844 304.753906 253.9375 305.277344 C 253.285156 305.796875 252.660156 306.351562 252.066406 306.933594 C 251.46875 307.515625 250.902344 308.128906 250.363281 308.769531 C 249.828125 309.40625 249.324219 310.070312 248.851562 310.761719 C 248.382812 311.449219 247.945312 312.160156 247.542969 312.890625 C 247.144531 313.625 246.777344 314.375 246.453125 315.140625 C 246.125 315.910156 245.835938 316.691406 245.585938 317.488281 C 245.335938 318.28125 245.125 319.089844 244.953125 319.90625 C 244.785156 320.722656 244.652344 321.546875 244.5625 322.375 C 244.476562 323.207031 244.425781 324.039062 244.417969 324.871094 C 244.410156 325.707031 244.445312 326.539062 244.519531 327.371094 C 244.59375 328.203125 244.710938 329.027344 244.867188 329.847656 C 245.019531 330.667969 245.21875 331.476562 245.453125 332.277344 C 245.6875 333.078125 245.964844 333.867188 246.277344 334.640625 C 246.589844 335.414062 246.941406 336.167969 247.328125 336.90625 C 247.71875 337.648438 248.140625 338.363281 248.597656 339.0625 C 249.058594 339.757812 249.550781 340.433594 250.074219 341.082031 C 250.597656 341.730469 251.15625 342.351562 251.742188 342.945312 C 252.328125 343.539062 252.941406 344.105469 253.582031 344.636719 C 254.226562 345.171875 254.890625 345.671875 255.582031 346.140625 C 256.273438 346.605469 256.988281 347.039062 257.722656 347.4375 C 258.453125 347.835938 259.207031 348.195312 259.976562 348.519531 C 260.746094 348.84375 261.527344 349.128906 262.328125 349.375 C 263.125 349.621094 263.933594 349.828125 264.75 349.996094 C 265.566406 350.164062 266.390625 350.289062 267.222656 350.375 C 268.050781 350.460938 268.886719 350.503906 269.71875 350.507812 C 270.554688 350.511719 271.386719 350.476562 272.21875 350.398438 C 273.050781 350.320312 273.875 350.199219 274.695312 350.039062 C 275.515625 349.882812 276.324219 349.683594 277.125 349.441406 C 277.921875 349.203125 278.710938 348.925781 279.480469 348.609375 C 280.253906 348.292969 281.007812 347.9375 281.746094 347.546875 C 282.484375 347.15625 283.199219 346.730469 283.894531 346.269531 C 284.589844 345.804688 285.261719 345.3125 285.910156 344.785156 C 286.554688 344.253906 287.175781 343.699219 287.765625 343.109375 C 288.359375 342.519531 288.917969 341.902344 289.449219 341.257812 C 289.980469 340.617188 290.480469 339.945312 290.945312 339.253906 C 291.410156 338.5625 291.839844 337.847656 292.234375 337.113281 C 292.628906 336.375 292.984375 335.621094 293.304688 334.851562 C 293.625 334.082031 293.90625 333.296875 294.152344 332.5 C 294.394531 331.699219 294.597656 330.890625 294.761719 330.074219 C 294.925781 329.253906 295.046875 328.429688 295.128906 327.601562 C 295.210938 326.769531 295.253906 325.9375 295.253906 325.101562 C 295.257812 324.277344 295.222656 323.453125 295.148438 322.628906 C 295.074219 321.804688 294.957031 320.988281 294.800781 320.175781 C 294.644531 319.363281 294.449219 318.5625 294.214844 317.769531 C 293.980469 316.976562 293.710938 316.195312 293.398438 315.429688 C 293.085938 314.664062 292.738281 313.914062 292.355469 313.183594 C 291.96875 312.453125 291.550781 311.742188 291.09375 311.050781 C 290.640625 310.359375 290.152344 309.695312 289.632812 309.050781 C 289.113281 308.410156 288.5625 307.792969 287.980469 307.203125 C 287.398438 306.617188 286.792969 306.058594 286.15625 305.527344 C 285.519531 305 284.859375 304.503906 284.175781 304.039062 C 283.492188 303.574219 282.785156 303.148438 282.058594 302.753906 C 281.332031 302.359375 280.585938 302 279.824219 301.679688 C 279.0625 301.355469 278.289062 301.074219 277.5 300.828125 C 276.707031 300.582031 275.910156 300.378906 275.097656 300.210938 C 274.289062 300.042969 273.472656 299.917969 272.648438 299.832031 C 271.828125 299.746094 271.003906 299.699219 270.175781 299.695312 Z M 270.175781 299.695312 " fill-opacity="1" fill-rule="nonzero"/><path fill="#4270cc" d="M 320.410156 290.460938 C 320.425781 292.484375 319.882812 294.34375 318.785156 296.042969 C 317.871094 297.460938 316.675781 298.574219 315.199219 299.386719 C 314.855469 299.574219 314.503906 299.742188 314.144531 299.890625 C 313.886719 300 313.621094 300.085938 313.347656 300.148438 C 313.132812 300.230469 312.910156 300.296875 312.683594 300.34375 C 312.425781 300.40625 312.167969 300.457031 311.90625 300.488281 C 311.417969 300.578125 310.925781 300.613281 310.429688 300.601562 L 116.324219 300.601562 C 114.40625 300.570312 112.5 300.402344 110.605469 300.09375 C 108.710938 299.785156 106.851562 299.339844 105.023438 298.757812 C 103.191406 298.175781 101.414062 297.464844 99.691406 296.625 C 97.964844 295.78125 96.3125 294.820312 94.726562 293.738281 C 93.140625 292.65625 91.644531 291.460938 90.234375 290.160156 C 88.824219 288.859375 87.515625 287.460938 86.3125 285.96875 C 85.105469 284.476562 84.015625 282.90625 83.039062 281.253906 C 82.0625 279.601562 81.210938 277.886719 80.488281 276.109375 C 79.761719 274.335938 79.167969 272.515625 78.710938 270.652344 C 78.25 268.789062 77.929688 266.902344 77.746094 264.992188 C 77.5625 263.082031 77.519531 261.171875 77.617188 259.253906 C 77.710938 257.339844 77.945312 255.4375 78.320312 253.558594 C 78.695312 251.675781 79.203125 249.832031 79.847656 248.023438 C 80.492188 246.214844 81.261719 244.464844 82.160156 242.769531 C 83.0625 241.074219 84.078125 239.457031 85.214844 237.910156 C 86.351562 236.363281 87.59375 234.910156 88.945312 233.542969 C 89.382812 233.105469 89.835938 232.667969 90.292969 232.261719 C 90.746094 231.855469 91.410156 231.273438 91.996094 230.800781 C 92.582031 230.332031 92.9375 230.023438 93.425781 229.667969 C 94.21875 229.066406 95.046875 228.515625 95.828125 228.042969 C 96.347656 227.703125 96.863281 227.378906 97.449219 227.085938 C 98.035156 226.792969 98.421875 226.535156 98.910156 226.273438 C 99.4375 225.984375 99.976562 225.726562 100.535156 225.496094 C 101.359375 225.089844 102.15625 224.734375 103.082031 224.410156 C 104.007812 224.085938 104.574219 223.890625 105.335938 223.664062 L 105.144531 221.828125 L 90.066406 76.53125 L 87.109375 51.074219 L 23.8125 44.859375 C 23.152344 44.789062 22.503906 44.652344 21.871094 44.453125 C 21.238281 44.257812 20.628906 44 20.046875 43.679688 C 19.464844 43.363281 18.917969 42.992188 18.410156 42.566406 C 17.898438 42.144531 17.4375 41.671875 17.019531 41.15625 C 16.601562 40.640625 16.238281 40.089844 15.925781 39.503906 C 15.617188 38.917969 15.367188 38.304688 15.175781 37.671875 C 14.988281 37.035156 14.859375 36.386719 14.796875 35.726562 C 14.734375 35.066406 14.738281 34.40625 14.804688 33.746094 C 14.882812 32.929688 15.054688 32.136719 15.324219 31.359375 C 15.382812 31.128906 15.46875 30.90625 15.582031 30.695312 C 15.671875 30.503906 15.777344 30.320312 15.890625 30.144531 C 16.164062 29.566406 16.5 29.023438 16.898438 28.523438 C 17.109375 28.21875 17.347656 27.9375 17.609375 27.679688 C 17.859375 27.402344 18.128906 27.15625 18.421875 26.933594 C 18.707031 26.671875 19.011719 26.433594 19.332031 26.21875 C 20.289062 25.582031 21.324219 25.125 22.4375 24.84375 C 23.550781 24.566406 24.679688 24.484375 25.824219 24.59375 L 97.125 31.605469 C 97.695312 31.664062 98.253906 31.769531 98.808594 31.921875 C 99.359375 32.078125 99.894531 32.277344 100.410156 32.523438 C 100.929688 32.765625 101.421875 33.054688 101.890625 33.382812 C 102.359375 33.714844 102.796875 34.078125 103.203125 34.484375 C 103.609375 34.886719 103.980469 35.324219 104.3125 35.789062 C 104.644531 36.257812 104.933594 36.746094 105.179688 37.265625 C 105.429688 37.78125 105.632812 38.3125 105.789062 38.863281 C 105.945312 39.414062 106.054688 39.976562 106.117188 40.542969 L 110.011719 74.292969 L 125.382812 221.796875 L 308.398438 221.796875 C 309.0625 221.800781 309.71875 221.871094 310.367188 222.007812 C 311.019531 222.140625 311.648438 222.335938 312.257812 222.597656 C 312.871094 222.855469 313.449219 223.167969 314 223.542969 C 314.546875 223.914062 315.054688 224.335938 315.519531 224.808594 C 315.984375 225.28125 316.398438 225.792969 316.765625 226.347656 C 317.128906 226.902344 317.4375 227.484375 317.6875 228.101562 C 317.9375 228.714844 318.125 229.347656 318.25 230 C 318.375 230.648438 318.433594 231.308594 318.429688 231.96875 C 318.453125 233.996094 317.914062 235.855469 316.804688 237.550781 C 316.597656 237.871094 316.363281 238.175781 316.109375 238.460938 C 314.816406 240.035156 313.191406 241.117188 311.238281 241.707031 C 311.027344 241.707031 310.867188 241.820312 310.671875 241.851562 C 310.433594 241.914062 310.1875 241.953125 309.941406 241.964844 C 309.445312 242.070312 308.941406 242.121094 308.429688 242.109375 L 118.5 242.109375 C 117.785156 242.273438 117.058594 242.359375 116.324219 242.371094 C 115.691406 242.371094 115.09375 242.371094 114.492188 242.371094 C 113.890625 242.425781 113.292969 242.523438 112.707031 242.664062 C 112.214844 242.757812 111.726562 242.875 111.246094 243.019531 C 111 243.074219 110.761719 243.152344 110.53125 243.246094 C 110.296875 243.3125 110.070312 243.398438 109.851562 243.507812 C 109.472656 243.617188 109.109375 243.765625 108.761719 243.945312 C 107.785156 244.402344 106.851562 244.945312 105.96875 245.566406 C 105.546875 245.859375 105.109375 246.152344 104.722656 246.460938 C 104.183594 246.882812 103.675781 247.335938 103.195312 247.820312 C 102.542969 248.480469 101.941406 249.179688 101.390625 249.925781 C 100.839844 250.671875 100.347656 251.453125 99.914062 252.269531 C 99.476562 253.085938 99.105469 253.933594 98.792969 254.804688 C 98.480469 255.675781 98.234375 256.566406 98.054688 257.472656 C 97.871094 258.382812 97.757812 259.300781 97.710938 260.222656 C 97.664062 261.148438 97.683594 262.070312 97.769531 262.992188 C 97.859375 263.914062 98.011719 264.828125 98.234375 265.726562 C 98.453125 266.625 98.742188 267.503906 99.089844 268.359375 C 99.441406 269.21875 99.851562 270.046875 100.320312 270.84375 C 100.792969 271.640625 101.320312 272.398438 101.902344 273.121094 C 102.484375 273.839844 103.113281 274.515625 103.792969 275.144531 C 104.476562 275.773438 105.199219 276.347656 105.964844 276.871094 C 106.726562 277.390625 107.527344 277.855469 108.359375 278.261719 C 109.191406 278.667969 110.050781 279.007812 110.933594 279.289062 C 111.816406 279.570312 112.714844 279.785156 113.628906 279.933594 C 114.542969 280.082031 115.464844 280.160156 116.390625 280.175781 L 310.378906 280.175781 C 311.046875 280.179688 311.710938 280.25 312.363281 280.386719 C 313.019531 280.519531 313.652344 280.71875 314.269531 280.980469 C 314.882812 281.242188 315.464844 281.5625 316.019531 281.9375 C 316.570312 282.316406 317.078125 282.746094 317.546875 283.222656 C 318.011719 283.703125 318.425781 284.222656 318.789062 284.78125 C 319.152344 285.34375 319.457031 285.933594 319.703125 286.554688 C 319.949219 287.175781 320.132812 287.816406 320.25 288.472656 C 320.371094 289.132812 320.421875 289.792969 320.410156 290.460938 Z M 320.410156 290.460938 " fill-opacity="1" fill-rule="nonzero"/><path fill="#444d61" d="M 151.515625 341.554688 C 150.347656 342.953125 149.042969 344.210938 147.601562 345.324219 C 146.160156 346.4375 144.613281 347.382812 142.964844 348.15625 C 141.316406 348.929688 139.605469 349.515625 137.824219 349.910156 C 136.046875 350.308594 134.25 350.507812 132.425781 350.511719 C 131.144531 350.492188 129.871094 350.371094 128.605469 350.160156 C 127.339844 349.945312 126.097656 349.636719 124.878906 349.234375 C 123.660156 348.835938 122.476562 348.34375 121.332031 347.765625 C 120.1875 347.183594 119.09375 346.523438 118.050781 345.777344 C 117.003906 345.03125 116.023438 344.210938 115.101562 343.320312 C 114.179688 342.425781 113.332031 341.46875 112.554688 340.445312 C 111.78125 339.425781 111.085938 338.351562 110.472656 337.222656 C 109.859375 336.097656 109.332031 334.929688 108.894531 333.726562 C 108.457031 332.519531 108.113281 331.285156 107.863281 330.027344 C 107.609375 328.769531 107.457031 327.5 107.398438 326.21875 C 107.335938 324.9375 107.375 323.660156 107.507812 322.382812 C 107.640625 321.109375 107.871094 319.851562 108.195312 318.609375 C 108.519531 317.367188 108.933594 316.15625 109.441406 314.980469 C 109.949219 313.800781 110.542969 312.667969 111.21875 311.578125 C 111.898438 310.488281 112.652344 309.457031 113.488281 308.480469 C 114.320312 307.507812 115.226562 306.601562 116.195312 305.761719 C 115.425781 306.679688 114.722656 307.644531 114.085938 308.660156 C 113.453125 309.675781 112.890625 310.730469 112.40625 311.828125 C 111.917969 312.921875 111.511719 314.042969 111.183594 315.195312 C 110.855469 316.347656 110.613281 317.519531 110.449219 318.707031 C 110.289062 319.890625 110.210938 321.085938 110.214844 322.28125 C 110.222656 323.480469 110.3125 324.671875 110.488281 325.855469 C 110.660156 327.042969 110.917969 328.207031 111.257812 329.355469 C 111.59375 330.507812 112.011719 331.625 112.511719 332.714844 C 113.007812 333.804688 113.578125 334.855469 114.222656 335.863281 C 114.871094 336.871094 115.582031 337.832031 116.363281 338.742188 C 117.144531 339.648438 117.984375 340.5 118.886719 341.289062 C 119.785156 342.078125 120.738281 342.800781 121.738281 343.457031 C 122.742188 344.113281 123.785156 344.695312 124.871094 345.203125 C 125.957031 345.710938 127.070312 346.140625 128.21875 346.492188 C 129.363281 346.84375 130.527344 347.113281 131.710938 347.300781 C 132.894531 347.484375 134.085938 347.589844 135.28125 347.609375 C 138.265625 347.613281 141.152344 347.097656 143.949219 346.054688 C 146.742188 345.011719 149.265625 343.511719 151.515625 341.554688 Z M 151.515625 341.554688 " fill-opacity="0.298" fill-rule="nonzero"/><path fill="#444d61" d="M 289.246094 341.554688 C 288.082031 342.957031 286.777344 344.214844 285.335938 345.328125 C 283.894531 346.441406 282.351562 347.386719 280.703125 348.160156 C 279.050781 348.933594 277.339844 349.519531 275.558594 349.914062 C 273.78125 350.3125 271.980469 350.511719 270.160156 350.511719 C 268.875 350.492188 267.601562 350.371094 266.335938 350.160156 C 265.070312 349.945312 263.828125 349.636719 262.609375 349.234375 C 261.390625 348.835938 260.210938 348.34375 259.066406 347.765625 C 257.921875 347.183594 256.828125 346.523438 255.78125 345.777344 C 254.738281 345.03125 253.753906 344.210938 252.835938 343.320312 C 251.914062 342.425781 251.066406 341.46875 250.289062 340.445312 C 249.511719 339.425781 248.820312 338.351562 248.207031 337.222656 C 247.589844 336.097656 247.066406 334.929688 246.628906 333.726562 C 246.191406 332.519531 245.847656 331.285156 245.59375 330.027344 C 245.34375 328.769531 245.1875 327.5 245.128906 326.21875 C 245.070312 324.9375 245.109375 323.660156 245.242188 322.382812 C 245.375 321.109375 245.605469 319.851562 245.929688 318.609375 C 246.253906 317.367188 246.667969 316.15625 247.175781 314.980469 C 247.683594 313.800781 248.273438 312.667969 248.953125 311.578125 C 249.628906 310.488281 250.386719 309.457031 251.222656 308.480469 C 252.054688 307.507812 252.957031 306.601562 253.929688 305.761719 C 253.160156 306.679688 252.457031 307.644531 251.824219 308.660156 C 251.191406 309.679688 250.632812 310.734375 250.148438 311.828125 C 249.664062 312.921875 249.257812 314.046875 248.929688 315.199219 C 248.605469 316.347656 248.359375 317.519531 248.199219 318.703125 C 248.039062 319.890625 247.960938 321.082031 247.96875 322.28125 C 247.972656 323.476562 248.0625 324.667969 248.238281 325.851562 C 248.414062 327.035156 248.671875 328.203125 249.007812 329.351562 C 249.347656 330.5 249.765625 331.617188 250.261719 332.707031 C 250.761719 333.796875 251.332031 334.84375 251.976562 335.851562 C 252.621094 336.863281 253.332031 337.820312 254.113281 338.730469 C 254.894531 339.636719 255.734375 340.488281 256.632812 341.277344 C 257.53125 342.066406 258.484375 342.789062 259.484375 343.445312 C 260.484375 344.101562 261.527344 344.683594 262.613281 345.191406 C 263.695312 345.703125 264.8125 346.132812 265.957031 346.484375 C 267.101562 346.835938 268.261719 347.105469 269.445312 347.292969 C 270.628906 347.484375 271.820312 347.585938 273.015625 347.609375 C 276 347.613281 278.886719 347.097656 281.679688 346.054688 C 284.476562 345.011719 286.996094 343.511719 289.246094 341.554688 Z M 289.246094 341.554688 " fill-opacity="0.298" fill-rule="nonzero"/><path fill="#325499" d="M 87.109375 51.074219 L 23.8125 44.859375 C 22.773438 44.738281 21.777344 44.460938 20.828125 44.03125 C 19.875 43.605469 19.007812 43.042969 18.226562 42.347656 C 17.445312 41.65625 16.789062 40.859375 16.25 39.964844 C 15.714844 39.070312 15.324219 38.113281 15.078125 37.097656 C 14.835938 36.082031 14.75 35.054688 14.820312 34.011719 C 14.890625 32.972656 15.117188 31.964844 15.496094 30.992188 C 15.878906 30.019531 16.394531 29.125 17.046875 28.3125 C 17.703125 27.496094 18.464844 26.800781 19.332031 26.21875 C 19.09375 26.582031 18.882812 26.957031 18.695312 27.347656 C 18.507812 27.738281 18.34375 28.136719 18.207031 28.546875 C 18.070312 28.960938 17.960938 29.375 17.875 29.800781 C 17.789062 30.226562 17.734375 30.65625 17.703125 31.085938 C 17.675781 31.519531 17.671875 31.949219 17.699219 32.382812 C 17.722656 32.816406 17.773438 33.242188 17.855469 33.667969 C 17.933594 34.09375 18.042969 34.515625 18.175781 34.925781 C 18.308594 35.339844 18.464844 35.738281 18.648438 36.132812 C 18.832031 36.523438 19.042969 36.902344 19.273438 37.269531 C 19.507812 37.632812 19.761719 37.984375 20.039062 38.316406 C 20.3125 38.648438 20.609375 38.964844 20.925781 39.257812 C 21.242188 39.554688 21.578125 39.828125 21.929688 40.082031 C 22.28125 40.335938 22.648438 40.566406 23.027344 40.769531 C 23.410156 40.976562 23.800781 41.160156 24.203125 41.316406 C 24.609375 41.472656 25.019531 41.605469 25.441406 41.707031 C 25.859375 41.8125 26.285156 41.890625 26.714844 41.941406 L 90.015625 48.171875 L 92.96875 73.628906 L 108.242188 220.757812 C 107.160156 221.070312 106.136719 221.429688 105.175781 221.828125 L 90.097656 76.53125 Z M 87.109375 51.074219 " fill-opacity="0.298" fill-rule="nonzero"/><path fill="#325499" d="M 106.003906 245.046875 C 106.863281 244.171875 107.800781 243.386719 108.816406 242.699219 C 109.832031 242.007812 110.902344 241.425781 112.035156 240.949219 C 113.167969 240.472656 114.332031 240.113281 115.535156 239.867188 C 116.738281 239.625 117.953125 239.5 119.183594 239.5 C 119.917969 239.488281 120.640625 239.402344 121.355469 239.238281 L 311.253906 239.238281 C 313.257812 239.261719 315.089844 238.722656 316.757812 237.617188 C 316.308594 238.316406 315.777344 238.953125 315.171875 239.519531 C 314.5625 240.089844 313.890625 240.574219 313.164062 240.976562 C 312.433594 241.375 311.664062 241.679688 310.859375 241.890625 C 310.050781 242.097656 309.230469 242.203125 308.398438 242.207031 L 118.5 242.207031 C 117.785156 242.371094 117.058594 242.457031 116.324219 242.46875 C 114.195312 242.46875 112.132812 242.828125 110.128906 243.546875 C 108.125 244.265625 106.300781 245.300781 104.65625 246.652344 C 105.070312 246.089844 105.519531 245.554688 106.003906 245.046875 Z M 106.003906 245.046875 " fill-opacity="0.298" fill-rule="nonzero"/><path fill="#325499" d="M 318.769531 296.042969 C 318.320312 296.746094 317.789062 297.382812 317.175781 297.953125 C 316.566406 298.519531 315.894531 299.007812 315.160156 299.40625 C 314.425781 299.808594 313.65625 300.113281 312.847656 300.320312 C 312.039062 300.527344 311.214844 300.632812 310.378906 300.636719 L 116.324219 300.636719 C 114.40625 300.605469 112.5 300.433594 110.605469 300.125 C 108.710938 299.816406 106.851562 299.371094 105.023438 298.789062 C 103.191406 298.207031 101.414062 297.496094 99.691406 296.65625 C 97.964844 295.816406 96.3125 294.851562 94.726562 293.769531 C 93.140625 292.6875 91.644531 291.496094 90.234375 290.195312 C 88.824219 288.890625 87.515625 287.496094 86.3125 286.003906 C 85.105469 284.511719 84.015625 282.9375 83.039062 281.285156 C 82.0625 279.632812 81.210938 277.917969 80.488281 276.144531 C 79.761719 274.367188 79.167969 272.546875 78.710938 270.683594 C 78.25 268.820312 77.929688 266.933594 77.746094 265.027344 C 77.5625 263.117188 77.519531 261.203125 77.617188 259.285156 C 77.710938 257.371094 77.945312 255.472656 78.320312 253.589844 C 78.695312 251.707031 79.203125 249.863281 79.847656 248.054688 C 80.492188 246.25 81.261719 244.496094 82.160156 242.804688 C 83.0625 241.109375 84.078125 239.488281 85.214844 237.941406 C 86.351562 236.394531 87.59375 234.941406 88.945312 233.578125 C 89.382812 233.136719 89.835938 232.699219 90.292969 232.292969 C 89.054688 233.699219 87.921875 235.183594 86.894531 236.746094 C 85.871094 238.3125 84.960938 239.941406 84.167969 241.636719 C 83.375 243.332031 82.703125 245.074219 82.160156 246.863281 C 81.613281 248.65625 81.195312 250.472656 80.910156 252.324219 C 80.625 254.171875 80.472656 256.03125 80.449219 257.902344 C 80.429688 259.773438 80.542969 261.636719 80.785156 263.492188 C 81.03125 265.347656 81.40625 267.175781 81.914062 268.976562 C 82.417969 270.78125 83.046875 272.535156 83.804688 274.25 C 84.558594 275.960938 85.433594 277.609375 86.425781 279.199219 C 87.414062 280.785156 88.511719 282.292969 89.71875 283.726562 C 90.925781 285.15625 92.226562 286.496094 93.625 287.742188 C 95.019531 288.984375 96.5 290.125 98.058594 291.160156 C 99.617188 292.195312 101.242188 293.117188 102.933594 293.917969 C 104.625 294.722656 106.363281 295.402344 108.148438 295.957031 C 109.9375 296.515625 111.753906 296.941406 113.601562 297.238281 C 115.449219 297.535156 117.3125 297.699219 119.183594 297.730469 L 313.234375 297.730469 C 315.253906 297.742188 317.101562 297.179688 318.769531 296.042969 Z M 318.769531 296.042969 " fill-opacity="0.298" fill-rule="nonzero"/><path fill="#fc47c9" d="M 335.941406 83.769531 C 336.320312 83.773438 336.699219 83.796875 337.074219 83.839844 C 337.449219 83.886719 337.820312 83.953125 338.1875 84.039062 C 338.554688 84.128906 338.917969 84.234375 339.273438 84.363281 C 339.628906 84.492188 339.976562 84.636719 340.316406 84.804688 C 340.65625 84.972656 340.984375 85.15625 341.304688 85.359375 C 341.621094 85.566406 341.929688 85.785156 342.222656 86.023438 C 342.515625 86.261719 342.792969 86.515625 343.058594 86.785156 C 343.324219 87.054688 343.574219 87.339844 343.808594 87.636719 C 344.039062 87.933594 344.257812 88.246094 344.453125 88.566406 C 344.652344 88.886719 344.832031 89.21875 344.992188 89.5625 C 345.15625 89.90625 345.296875 90.253906 345.417969 90.613281 C 345.539062 90.96875 345.640625 91.335938 345.722656 91.703125 C 345.800781 92.074219 345.863281 92.445312 345.902344 92.820312 C 345.941406 93.199219 345.957031 93.574219 345.953125 93.953125 C 345.953125 94.332031 345.925781 94.707031 345.878906 95.082031 C 345.835938 95.457031 345.769531 95.828125 345.679688 96.195312 L 343.199219 107.019531 L 338.539062 127.351562 L 331.886719 156.410156 L 327.210938 176.753906 L 322.761719 196.226562 C 322.566406 197.105469 322.296875 197.964844 321.953125 198.800781 C 321.609375 199.636719 321.199219 200.4375 320.722656 201.207031 C 320.246094 201.972656 319.707031 202.695312 319.105469 203.371094 C 318.507812 204.046875 317.855469 204.667969 317.152344 205.234375 C 316.449219 205.800781 315.703125 206.300781 314.914062 206.742188 C 314.125 207.183594 313.304688 207.554688 312.453125 207.855469 C 311.601562 208.160156 310.730469 208.386719 309.839844 208.542969 C 308.949219 208.699219 308.054688 208.78125 307.148438 208.785156 L 153.574219 208.785156 C 152.59375 208.777344 151.621094 208.683594 150.660156 208.5 C 149.695312 208.316406 148.757812 208.046875 147.839844 207.691406 C 146.925781 207.335938 146.050781 206.902344 145.21875 206.386719 C 144.382812 205.871094 143.601562 205.285156 142.875 204.628906 C 142.144531 203.972656 141.484375 203.253906 140.886719 202.476562 C 140.289062 201.699219 139.769531 200.871094 139.320312 200 C 138.875 199.125 138.511719 198.21875 138.230469 197.28125 C 137.953125 196.339844 137.757812 195.382812 137.652344 194.410156 L 135.640625 176.820312 L 133.320312 156.472656 L 129.960938 127.414062 L 127.636719 107.085938 L 126.273438 95.125 C 126.183594 94.417969 126.167969 93.710938 126.226562 93 C 126.285156 92.289062 126.417969 91.59375 126.625 90.910156 C 126.828125 90.230469 127.105469 89.578125 127.453125 88.953125 C 127.796875 88.332031 128.203125 87.75 128.671875 87.214844 C 129.140625 86.675781 129.660156 86.195312 130.234375 85.769531 C 130.804688 85.339844 131.414062 84.980469 132.0625 84.683594 C 132.710938 84.386719 133.382812 84.160156 134.078125 84.007812 C 134.773438 83.851562 135.480469 83.773438 136.191406 83.769531 Z M 335.941406 83.769531 " fill-opacity="1" fill-rule="nonzero"/><path fill="#fd6cd4" d="M 181.460938 208.71875 L 158.558594 208.71875 L 145.492188 83.769531 L 168.359375 83.769531 Z M 181.460938 208.71875 " fill-opacity="1" fill-rule="nonzero"/><path fill="#fd6cd4" d="M 224.390625 208.71875 L 201.632812 208.71875 L 194.476562 83.769531 L 217.265625 83.769531 Z M 224.390625 208.71875 " fill-opacity="1" fill-rule="nonzero"/><path fill="#fd6cd4" d="M 324.417969 83.769531 L 303.320312 208.71875 L 280.222656 208.71875 L 301.339844 83.769531 Z M 324.417969 83.769531 " fill-opacity="1" fill-rule="nonzero"/><path fill="#fd6cd4" d="M 269.476562 83.769531 L 260.273438 208.71875 L 237.472656 208.71875 L 246.691406 83.769531 Z M 269.476562 83.769531 " fill-opacity="1" fill-rule="nonzero"/><path fill="#fd6cd4" d="M 343.179688 107.019531 L 338.523438 127.351562 L 129.960938 127.351562 L 127.636719 107.019531 Z M 343.179688 107.019531 " fill-opacity="1" fill-rule="nonzero"/><path fill="#fd6cd4" d="M 331.867188 156.410156 L 327.195312 176.753906 L 135.640625 176.753906 L 133.320312 156.410156 Z M 331.867188 156.410156 " fill-opacity="1" fill-rule="nonzero"/></svg>